<?xml version="1.0" encoding="UTF-8"?>
<COLLADA xmlns="http://www.collada.org/2005/11/COLLADASchema" version="1.4.1">
<!--
# File generated by ImageToStl.com - Free Image and 3D model conversion tools
-->
  <asset>
    <contributor>
      <author>ImageToStl.com</author>
      <authoring_tool>ImageToStl.com</authoring_tool>
    </contributor>
    <created>2026-01-08T01:42:21</created>
    <modified>2026-01-08T01:42:21</modified>
    <up_axis>Z_UP</up_axis>
  </asset>
  <library_effects>
    <effect id="effect_0">
        <profile_COMMON>
          <technique sid="common">
            <phong>
              <diffuse>
                <color>0.62745 0.62745 0.62745 1</color>
              </diffuse>
            </phong>
          </technique>
        </profile_COMMON>
    </effect>
    <effect id="effect_1">
        <profile_COMMON>
          <technique sid="common">
            <phong>
              <diffuse>
                <color>0.59608 0.59608 0.59608 1</color>
              </diffuse>
            </phong>
          </technique>
        </profile_COMMON>
    </effect>
  </library_effects>
  <library_materials>
    <material id="mat_0">
      <instance_effect url="#effect_0"/>
    </material>
    <material id="mat_1">
      <instance_effect url="#effect_1"/>
    </material>
  </library_materials>
  <library_geometries>
    <geometry id="geometry_bf8cfc26_5771_4e0e_af6a_731051cf9375">
      <mesh>
        <source id="pos_0">
          <float_array id="pos_0-array" count="660">4000 4000 300 4000 4000 0 4100 4000 300 4100 4000 0 4000 3200 300 4100 3200 300 2400 3200 0 4100 3200 0 2400 2400 0 4100 2400 0 4100 4900 0 4000 4900 0 4000 4800 300 4000 4800 600 4000 3200 600 4000 4900 300 3200 4800 300 3200 4900 300 3200 4000 600 3200 4000 0 3200 4900 0 3200 4800 600 2400 4800 0 1600 4800 0 -100 4900 0 800 4800 0 0 4800 0 2400 4000 0 1600 4000 0 800 4000 0 0 2400 0 -100 2400 0 4100 4900 600 -100 4900 600 4100 2400 300 4100 1600 300 4000 2400 300 4000 1600 300 0 2400 300 -100 2400 300 0 1600 300 -100 1600 300 0 800 300 0 0 300 -100 800 300 -100 0 300 4100 800 300 4100 0 300 3200 800 300 3200 0 300 1500 1600 600 1600 1600 600 1500 1600 300 1600 1600 0 1400 1600 300 -100 1600 0 0 1600 600 1400 1600 600 2500 2400 600 2400 2400 600 2500 2400 300 2600 2400 300 4000 2400 600 2600 2400 600 4000 1600 600 2600 1600 600 2600 1600 300 4100 1600 0 2400 1600 0 2500 1600 300 2400 1600 600 2500 1600 600 -100 -100 600 -100 800 0 -100 -100 0 -100 0 0 4100 0 0 4100 -100 0 1600 800 0 2400 800 0 4100 800 0 2500 800 600 2400 800 600 2500 800 300 2600 800 300 2600 800 600 3200 800 600 3200 0 600 2600 0 600 2600 0 300 2500 0 300 0 0 600 2500 0 600 2600 4000 600 2600 4100 600 2600 4000 300 2600 4100 300 2500 4100 600 2500 4100 300 2500 4000 600 2500 4000 300 2400 4100 600 2400 4100 300 2500 4200 600 2500 4200 300 2400 4200 600 2400 4200 300 1400 1500 600 1400 1500 300 1500 1500 300 2400 2500 600 2500 2500 600 2400 2500 300 2500 2500 300 2400 2600 300 2500 2600 300 1600 1500 600 1500 1500 600 1600 1500 300 1500 1400 600 1500 1400 300 1600 1400 600 1600 1400 300 2600 2500 600 2600 2500 300 2500 2600 600 2400 2600 600 2500 1500 600 2500 1500 300 2600 1500 600 2600 1500 300 2400 1400 600 2500 1400 600 2400 1400 300 2500 1400 300 2400 1500 600 2400 1500 300 2500 -100 600 2500 -100 300 2600 -100 600 2600 -100 300 1400 4000 300 1400 4100 300 1400 4000 600 1400 4100 600 2500 3200 600 2500 3100 600 2500 3200 300 2500 3100 300 2600 3100 600 2600 3100 300 2600 3200 600 2600 3200 300 2500 3000 600 2500 3000 300 2400 3100 300 2400 3100 600 2400 3000 600 2400 3000 300 1500 4100 600 1500 4100 300 1500 4000 600 1500 4000 300 1600 4100 600 1600 4100 300 1600 4200 600 1500 4200 600 1600 4200 300 1500 4200 300 2600 900 600 2600 900 300 2500 900 600 2500 900 300 2400 4000 600 2400 3200 600 1600 4800 600 1600 4000 600 2400 4800 600 800 4000 600 800 4800 600 0 4800 600 1600 800 600 0 800 600 4100 -100 600 1400 2400 300 1400 2500 300 1400 2400 600 1400 2500 600 1500 2500 600 1500 2500 300 1500 2400 600 1500 2400 300 1500 2600 600 1500 2600 300 1600 2500 300 1600 2500 600 1600 2600 600 1600 2600 300 1600 3000 300 1500 3000 300 1600 3000 600 1500 3000 600 1400 3200 600 1400 3100 600 1400 3200 300 1400 3100 300 1500 3200 300 1500 3100 300 1600 3100 600 1500 3100 600 1600 3100 300 1500 3200 600 1600 3200 600 1600 2400 600 800 2400 600 800 3200 600 800 3200 0 1600 3200 0 1600 2400 0 800 2400 0</float_array>
          <technique_common>
            <accessor source="#pos_0-array" count="660" stride="3">
              <param name="X" type="float"/>
              <param name="Y" type="float"/>
              <param name="Z" type="float"/>
            </accessor>
          </technique_common>
        </source>
        <source id="norm_0">
          <float_array id="norm_0-array" count="33">0 -1 0 0 0 -1 -1 0 0 1 0 0 0 1 0 0 -1 0 0 -1 0 0 -1 0 0 0 1 -0 -1 0 -0 -1 0</float_array>
          <technique_common>
            <accessor source="#norm_0-array" count="33" stride="3">
              <param name="X" type="float"/>
              <param name="Y" type="float"/>
              <param name="Z" type="float"/>
            </accessor>
          </technique_common>
        </source>
        <vertices id="vert_0">
          <input semantic="POSITION" source="#pos_0"/>
        </vertices>
        <triangles count="451">
          <input semantic="VERTEX" source="#vert_0" offset="0"/>
          <input semantic="NORMAL" source="#norm_0" offset="1"/>
          <p>2 0 1 0 3 0 4 1 0 1 5 1 5 1 0 1 2 1 6 1 7 1 8 1 8 1 7 1 9 1 3 1 1 1 10 1 10 1 1 1 11 1 11 2 1 2 12 2 12 2 1 2 0 2 12 2 0 2 13 2 13 2 0 2 14 2 14 2 0 2 4 2 12 2 15 2 11 2 12 1 16 1 15 1 15 1 16 1 17 1 18 3 19 3 16 3 16 3 19 3 20 3 16 3 20 3 17 3 16 3 21 3 18 3 19 1 22 1 20 1 20 1 22 1 23 1 20 1 23 1 24 1 24 1 23 1 25 1 24 1 25 1 26 1 19 1 27 1 22 1 28 1 29 1 23 1 23 1 29 1 25 1 30 1 31 1 26 1 26 1 31 1 24 1 11 4 15 4 10 4 10 4 15 4 32 4 32 4 15 4 17 4 32 4 17 4 33 4 33 4 17 4 24 4 24 4 17 4 20 4 34 1 35 1 36 1 36 1 35 1 37 1 30 0 38 0 31 0 31 0 38 0 39 0 38 1 40 1 39 1 39 1 40 1 41 1 42 1 43 1 44 1 44 1 43 1 45 1 46 1 47 1 48 1 48 1 47 1 49 1 50 4 51 4 52 4 52 4 51 4 53 4 52 4 53 4 54 4 54 4 53 4 55 4 54 4 55 4 40 4 40 4 55 4 41 4 56 4 57 4 40 4 40 4 57 4 54 4 58 0 59 0 60 0 60 0 59 0 8 0 60 0 8 0 61 0 61 0 8 0 9 0 61 0 9 0 36 0 36 0 9 0 34 0 62 0 63 0 36 0 36 0 63 0 61 0 36 2 37 2 62 2 62 2 37 2 64 2 65 4 64 4 66 4 66 4 64 4 37 4 66 4 37 4 67 4 67 4 37 4 35 4 67 4 68 4 66 4 66 4 68 4 69 4 69 4 68 4 70 4 69 4 70 4 71 4 31 2 39 2 24 2 24 2 39 2 33 2 33 2 39 2 72 2 72 2 39 2 41 2 72 2 41 2 44 2 44 2 41 2 73 2 73 2 41 2 55 2 44 2 45 2 72 2 72 2 45 2 74 2 74 2 45 2 75 2 75 1 76 1 74 1 74 1 76 1 77 1 55 1 53 1 73 1 73 1 53 1 78 1 68 1 67 1 79 1 79 1 67 1 80 1 81 0 82 0 83 0 83 5 82 5 79 5 83 6 79 6 84 6 84 6 79 6 48 6 84 0 48 0 85 0 85 0 48 0 86 0 79 7 80 7 48 7 48 0 80 0 46 0 48 2 49 2 86 2 86 2 49 2 87 2 88 4 87 4 89 4 89 4 87 4 49 4 89 4 49 4 76 4 76 4 49 4 47 4 89 4 76 4 90 4 90 4 76 4 75 4 90 4 75 4 43 4 43 4 75 4 45 4 91 4 92 4 43 4 43 4 92 4 90 4 93 2 94 2 95 2 95 2 94 2 96 2 94 0 97 0 96 0 96 0 97 0 98 0 97 3 99 3 98 3 98 3 99 3 100 3 100 8 95 8 98 8 98 8 95 8 96 8 101 4 97 4 102 4 102 4 97 4 98 4 97 2 103 2 98 2 98 2 103 2 104 2 103 0 105 0 104 0 104 0 105 0 106 0 104 8 106 8 98 8 98 8 106 8 102 8 57 3 107 3 54 3 54 3 107 3 108 3 52 8 54 8 109 8 109 8 54 8 108 8 110 4 111 4 112 4 112 4 111 4 113 4 112 8 113 8 114 8 114 8 113 8 115 8 116 0 117 0 118 0 118 0 117 0 109 0 117 3 119 3 109 3 109 3 119 3 120 3 119 4 121 4 120 4 120 4 121 4 122 4 118 8 109 8 122 8 122 8 109 8 120 8 107 4 117 4 108 4 108 4 117 4 109 4 52 2 109 2 50 2 50 2 109 2 117 2 63 2 123 2 61 2 61 2 123 2 124 2 123 0 111 0 124 0 124 0 111 0 113 0 111 3 58 3 113 3 113 3 58 3 60 3 60 8 61 8 113 8 113 8 61 8 124 8 111 2 125 2 113 2 113 2 125 2 115 2 114 0 115 0 126 0 126 0 115 0 125 0 71 3 127 3 69 3 69 3 127 3 128 3 127 4 129 4 128 4 128 4 129 4 130 4 129 2 65 2 130 2 130 2 65 2 66 2 66 8 69 8 130 8 130 8 69 8 128 8 131 4 132 4 133 4 133 4 132 4 134 4 132 2 127 2 134 2 134 2 127 2 128 2 127 0 135 0 128 0 128 0 135 0 136 0 133 8 134 8 136 8 136 8 134 8 128 8 92 3 137 3 90 3 90 3 137 3 138 3 139 2 88 2 140 2 140 2 88 2 89 2 89 8 90 8 140 8 140 8 90 8 138 8 141 3 142 3 143 3 143 3 142 3 144 3 145 3 146 3 147 3 147 3 146 3 148 3 146 4 149 4 148 4 148 4 149 4 150 4 149 2 151 2 150 2 150 2 151 2 152 2 152 8 147 8 150 8 150 8 147 8 148 8 153 2 146 2 154 2 154 2 146 2 148 2 155 0 148 0 156 0 156 0 148 0 146 0 157 4 153 4 158 4 158 4 153 4 154 4 158 8 154 8 155 8 155 8 154 8 148 8 159 0 144 0 160 0 160 0 144 0 142 0 161 2 159 2 162 2 162 2 159 2 160 2 141 8 162 8 142 8 142 8 162 8 160 8 159 4 163 4 160 4 160 4 163 4 164 4 165 0 166 0 167 0 167 0 166 0 168 0 166 3 159 3 168 3 168 3 159 3 160 3 160 8 164 8 168 8 168 8 164 8 167 8 85 2 169 2 84 2 84 2 169 2 170 2 169 0 171 0 170 0 170 0 171 0 172 0 171 3 81 3 172 3 172 3 81 3 83 3 83 8 84 8 172 8 172 8 84 8 170 8 93 0 95 0 18 0 18 0 95 0 19 0 19 0 95 0 27 0 27 0 95 0 100 0 27 0 100 0 173 0 173 0 100 0 99 0 131 2 133 2 82 2 82 2 133 2 79 2 79 2 133 2 68 2 68 2 133 2 136 2 68 2 136 2 70 2 70 2 136 2 135 2 110 2 112 2 59 2 59 2 112 2 8 2 8 2 112 2 114 2 8 2 114 2 158 2 158 2 114 2 157 2 157 2 114 2 126 2 8 2 158 2 6 2 6 2 158 2 155 2 6 2 155 2 174 2 174 2 155 2 156 2 165 3 167 3 175 3 175 3 167 3 23 3 23 3 167 3 28 3 28 3 167 3 164 3 28 3 164 3 176 3 176 3 164 3 163 3 161 8 176 8 159 8 159 8 176 8 163 8 145 8 174 8 146 8 146 8 174 8 156 8 71 8 70 8 127 8 127 8 70 8 135 8 111 8 110 8 58 8 58 8 110 8 59 8 117 8 116 8 50 8 50 8 116 8 51 8 97 8 101 8 99 8 99 8 101 8 173 8 16 0 12 0 21 0 21 0 12 0 13 0 105 2 177 2 106 2 106 2 177 2 22 2 106 2 22 2 27 2 106 2 27 2 102 2 102 2 27 2 173 2 102 2 173 2 101 2 23 0 22 0 175 0 175 0 22 0 177 0 143 0 178 0 141 0 141 0 178 0 29 0 141 0 29 0 28 0 141 0 28 0 162 0 162 0 28 0 176 0 162 0 176 0 161 0 25 2 29 2 179 2 179 2 29 2 178 2 26 0 25 0 180 0 180 0 25 0 179 0 30 3 26 3 38 3 38 3 26 3 180 3 38 3 180 3 56 3 56 3 40 3 38 3 121 3 181 3 122 3 122 3 181 3 78 3 122 3 78 3 53 3 122 3 53 3 118 3 118 3 53 3 51 3 118 3 51 3 116 3 73 9 78 9 42 9 42 10 78 10 181 10 42 0 181 0 182 0 42 0 44 0 73 0 43 3 42 3 91 3 91 3 42 3 182 3 6 4 152 4 7 4 7 4 152 4 4 4 7 4 4 4 5 4 152 4 6 4 147 4 147 4 6 4 174 4 147 4 174 4 145 4 151 4 14 4 152 4 152 4 14 4 4 4 137 0 72 0 138 0 138 0 72 0 74 0 138 0 74 0 77 0 138 0 77 0 140 0 140 0 77 0 183 0 140 0 183 0 139 0 3 3 10 3 2 3 2 3 10 3 32 3 2 3 32 3 5 3 5 3 32 3 34 3 5 3 34 3 7 3 7 3 34 3 9 3 32 3 183 3 34 3 34 3 183 3 35 3 35 3 183 3 46 3 35 3 46 3 67 3 67 3 46 3 80 3 46 3 183 3 47 3 47 3 183 3 77 3 47 3 77 3 76 3 93 8 18 8 94 8 94 8 18 8 21 8 94 8 21 8 103 8 103 8 21 8 177 8 103 8 177 8 105 8 177 8 21 8 32 8 32 8 21 8 13 8 32 8 13 8 14 8 151 8 149 8 14 8 14 8 149 8 62 8 14 8 62 8 32 8 32 8 62 8 183 8 183 8 62 8 64 8 183 8 64 8 86 8 86 8 64 8 65 8 86 8 65 8 129 8 146 8 153 8 149 8 149 8 153 8 125 8 149 8 125 8 123 8 123 8 125 8 111 8 153 8 157 8 125 8 125 8 157 8 126 8 63 8 62 8 123 8 123 8 62 8 149 8 127 8 132 8 129 8 129 8 132 8 169 8 129 8 169 8 86 8 86 8 169 8 85 8 169 8 132 8 171 8 171 8 132 8 131 8 171 8 131 8 82 8 82 8 81 8 171 8 86 8 87 8 183 8 183 8 87 8 139 8 139 8 87 8 88 8 32 8 33 8 177 8 177 8 33 8 175 8 175 8 33 8 179 8 175 8 179 8 166 8 166 8 179 8 144 8 166 8 144 8 159 8 72 8 56 8 33 8 33 8 56 8 180 8 33 8 180 8 179 8 137 8 91 8 72 8 72 8 91 8 182 8 72 8 182 8 56 8 56 8 182 8 107 8 56 8 107 8 57 8 137 8 92 8 91 8 182 8 181 8 107 8 107 8 181 8 119 8 107 8 119 8 117 8 181 8 121 8 119 8 179 8 178 8 144 8 144 8 178 8 143 8 166 8 165 8 175 8 103 8 97 8 94 8 184 3 185 3 186 3 186 3 185 3 187 3 188 0 187 0 189 0 189 0 187 0 185 0 190 2 188 2 191 2 191 2 188 2 189 2 184 8 191 8 185 8 185 8 191 8 189 8 192 3 188 3 193 3 193 3 188 3 189 3 194 4 189 4 195 4 195 4 189 4 188 4 196 0 192 0 197 0 197 0 192 0 193 0 197 8 193 8 194 8 194 8 193 8 189 8 198 4 199 4 200 4 200 4 199 4 201 4 202 3 203 3 204 3 204 3 203 3 205 3 206 8 204 8 207 8 207 8 204 8 205 8 208 0 209 0 210 0 210 0 209 0 207 0 209 3 201 3 207 3 207 3 201 3 199 3 210 8 207 8 198 8 198 8 207 8 199 8 203 4 209 4 205 4 205 4 209 4 207 4 206 2 207 2 211 2 211 2 207 2 209 2 209 8 208 8 211 8 211 8 208 8 212 8 190 8 213 8 188 8 188 8 213 8 195 8 186 8 187 8 214 8 214 8 187 8 203 8 214 8 203 8 215 8 215 8 203 8 202 8 188 8 192 8 187 8 187 8 192 8 203 8 203 8 192 8 201 8 201 8 192 8 196 8 201 8 196 8 200 8 201 8 209 8 203 8 202 4 204 4 215 4 215 4 204 4 216 4 216 4 204 4 217 4 217 4 204 4 206 4 217 4 206 4 212 4 212 4 206 4 211 4 195 3 213 3 194 3 194 3 213 3 218 3 194 3 218 3 197 3 197 3 218 3 217 3 197 3 217 3 198 3 198 3 217 3 210 3 210 3 217 3 212 3 210 3 212 3 208 3 200 3 196 3 198 3 198 3 196 3 197 3 186 0 214 0 184 0 184 0 214 0 219 0 184 0 219 0 218 0 184 0 218 0 191 0 191 0 218 0 213 0 191 0 213 0 190 0 216 2 219 2 215 2 215 2 219 2 214 2 216 1 217 1 219 1 219 1 217 1 218 1</p>
        </triangles>
        <triangles count="1" material="mat_1">
          <input semantic="VERTEX" source="#vert_0" offset="0"/>
          <input semantic="NORMAL" source="#norm_0" offset="1"/>
          <p>0 0 1 0 2 0</p>
        </triangles>
      </mesh>
    </geometry>
  </library_geometries>
  <library_visual_scenes>
    <visual_scene id="DefaultScene">
      <node id="node_d0b449a4_118f_4701_968c_22c16020aa12" type="NODE">
        <matrix>1 0 0 0 0 1 0 0 0 0 1 0 0 0 0 1</matrix>
        <node id="node_4f1e4ed7_63bc_4a87_8334_fedc8d5584bc" type="NODE">
          <matrix>1 0 0 0 0 1 0 0 0 0 1 0 0 0 0 1</matrix>
          <node id="node_4f1e4ed7_63bc_4a87_8334_fedc8d5584bc_mesh0" type="NODE">
            <matrix>1 0 0 0 0 1 0 0 0 0 1 0 0 0 0 1</matrix>
            <instance_geometry url="#geometry_bf8cfc26_5771_4e0e_af6a_731051cf9375">
              <bind_material>
                <technique_common>
                  <instance_material symbol="mat_1" target="#mat_1"/>
                </technique_common>
              </bind_material>
            </instance_geometry>
          </node>
        </node>
      </node>
    </visual_scene>
  </library_visual_scenes>
  <scene>
    <instance_visual_scene url="#DefaultScene"/>
  </scene>
</COLLADA>
